<svg width="38" height="38" viewBox="0 0 38 38" fill="none" xmlns="http://www.w3.org/2000/svg">
<path d="M17.2188 30.5583L6.76875 20.1083C6.61042 19.95 6.498 19.7785 6.4315 19.5937C6.365 19.409 6.33228 19.2111 6.33334 19C6.33334 18.7889 6.36659 18.591 6.43309 18.4062C6.49959 18.2215 6.61148 18.05 6.76875 17.8917L17.2188 7.44166C17.509 7.15138 17.8721 6.99991 18.3081 6.98724C18.744 6.97458 19.1198 7.12605 19.4354 7.44166C19.7521 7.73194 19.9173 8.09505 19.931 8.53099C19.9447 8.96694 19.7927 9.34272 19.475 9.65833L11.7167 17.4167H29.4104C29.859 17.4167 30.2353 17.5687 30.5393 17.8727C30.8433 18.1767 30.9948 18.5524 30.9938 19C30.9938 19.4486 30.8423 19.8249 30.5393 20.1289C30.2364 20.4329 29.8601 20.5844 29.4104 20.5833H11.7167L19.475 28.3417C19.7653 28.6319 19.9173 29.0014 19.931 29.45C19.9447 29.8986 19.7927 30.268 19.475 30.5583C19.1847 30.875 18.8153 31.0333 18.3667 31.0333C17.9181 31.0333 17.5354 30.875 17.2188 30.5583Z" fill="black"/>
</svg>
